<svg xmlns="http://www.w3.org/2000/svg" xmlns:xlink="http://www.w3.org/1999/xlink" version="1.1" id="Layer_1" x="0px" y="0px" width="63.659px" height="73.037px" viewBox="11.401 13.079 63.659 73.037" enable-background="new 11.401 13.079 63.659 73.037" xml:space="preserve"><g><path fill="#FFFFFF" d="M74.365 31.071c-0.069-0.043-6.864-4.49-13.951-8.88 -14.669-9.091-16.267-9.104-17.036-9.11 -0.768-0.006-2.366-0.019-17.18 8.833 -7.157 4.277-14.024 8.611-14.093 8.656l-0.704 0.444v36.669l0.4 0.444c0.068 0.042 6.864 4.49 13.951 8.881 14.67 9.092 16.267 9.103 17.036 9.108 0.768 0.009 2.367 0.021 17.182-8.83 7.157-4.276 14.023-8.614 14.092-8.657l0.999-0.647V31.527L74.365 31.071zM73.387 49.844l-0.14 17.495c0 0-27.346 17.278-30.446 17.254 -3.104-0.027-30.165-17.744-30.165-17.744l0.141-17.495 0.141-17.497c0 0 27.345-17.277 30.447-17.253 3.101 0.026 30.163 17.742 30.163 17.742L73.387 49.844z"/><g><polygon fill="#FFFFFF" points="15.34,33.281 43.313,20.973 43.352,16.48   "/><polygon fill="#FFFFFF" points="43.352,16.48 43.313,20.973 71.086,33.732   "/></g><g><polygon fill="#FFFFFF" points="70.826,66.009 42.851,78.318 42.815,82.81   "/><polygon fill="#FFFFFF" points="42.815,82.81 42.851,78.318 15.08,65.556   "/></g><polygon fill="#FFFFFF" points="30.504,68.434 30.502,68.434 30.504,68.434  "/><polygon fill="#FFFFFF" points="30.557,61.857 30.557,61.856 30.556,61.857  "/><g><g><g><path fill="#FFFFFF" d="M56.53 31.502l0.633-2.936 -33.81 5.531c-0.387 0.063-0.443 0.301-0.122 0.527l5.007 3.531c0.322 0.229 0.902 0.365 1.29 0.305l26.369-4.022 0.15-0.699 0 0L56.53 31.502z"/></g><path fill="#FFFFFF" d="M29.177 39.478l0.008 4.405c0 0.393 0.227 0.485 0.5 0.202l4.284-4.38c0.276-0.281 0.503-0.833 0.505-1.226L29.177 39.478z"/></g><g><g><path fill="#FFFFFF" d="M56.53 46.86l0.633-2.936 -33.81 5.53c-0.387 0.064-0.443 0.301-0.122 0.528l5.007 3.53c0.322 0.229 0.902 0.363 1.29 0.305l26.369-4.022 0.15-0.699 0 0L56.53 46.86z"/></g><path fill="#FFFFFF" d="M29.177 54.836l0.008 4.402c0 0.393 0.227 0.486 0.5 0.203l4.284-4.381c0.276-0.28 0.503-0.83 0.505-1.225L29.177 54.836z"/></g><g><g><path fill="#FFFFFF" d="M56.566 62.065l0.635-2.935 -33.811 5.531c-0.387 0.062-0.443 0.302-0.122 0.525l5.007 3.533c0.322 0.227 0.903 0.364 1.29 0.303l26.368-4.021 0.151-0.698 0 0L56.566 62.065z"/></g></g></g></g></svg>