<?xml version="1.0" encoding="utf-8"?>
<!-- Generator: Adobe Illustrator 16.0.0, SVG Export Plug-In . SVG Version: 6.00 Build 0)  -->
<!DOCTYPE svg PUBLIC "-//W3C//DTD SVG 1.1//EN" "http://www.w3.org/Graphics/SVG/1.1/DTD/svg11.dtd">
<svg version="1.1" id="Layer_1" xmlns="http://www.w3.org/2000/svg" xmlns:xlink="http://www.w3.org/1999/xlink" x="0px" y="0px"
	 width="300px" height="300px" viewBox="0 0 300 300" enable-background="new 0 0 300 300" xml:space="preserve">
<g>
	<path fill="#F4783F" d="M222.654,105.521c0,0-1.05,59.196,16.01,74.252c-13.547,9.029-97.751,37.336-172.515,2.207
		c16.499-25.763,14.205-58.947,12.7-77.009C77.345,86.906,222.654,105.521,222.654,105.521z"/>
	<g>
		<path fill="#CDDEE0" d="M10.531,257.74c6.375-23.041,59.175-40.675,90.598-52.409c10.004-3.74,13.124-20.88,13.221-33.503
			c-4.51-3.221-8.537-7.885-12.525-13.934c-5.749-8.676-11.39-15.462-15.903-26.725c-2.876-0.375-6.121-2.599-7.864-5.547
			c-6.87-11.607-10.42-29.886-8.19-35.699c1.224-3.214,4.694-3.976,7.58-4.03c-1.674-41.632,18.622-66.503,44.324-75.893
			c5.752-2.338,5.009-2.604,18.498-6.048c7.427-1.897,17.761-2.067,21.384-1.46c3.288,0.604,15.551,7.29,13.591,11.466
			c-0.086-0.013,16.257-4.478,19.841,8.52c0.67,0.616,1.272,0.079,0.401,0.948c10.453,7.844,24.08,31.639,22.854,62.443
			c3.012-0.085,7.06,0.507,8.396,4.018c2.247,5.819-1.311,24.061-8.176,35.668c-1.876,3.178-5.504,5.438-8.528,5.517
			c-4.399,11.251-9.891,17.909-15.62,26.567c-4.414,6.666-8.864,11.373-13.976,14.635c0.326,11.439,3.111,24.43,13.523,27.312
			c19.396,5.359,84.21,28.021,92.972,54.765c5.252,16.019,5.821,22.037,5.821,22.037c0,11.541-4.743,21.43-17.275,21.43H20.34
			c-12.529,0-13.775-8.297-13.775-19.838C6.564,272.743,5.824,274.785,10.531,257.74z"/>
		<path fill="#5DBACA" d="M101.794,203.092c4.329-1.619,7.239-5.328,9.163-10.043l36.203,14.712l36.352-18.403
			c2.046,4.932,5.316,8.811,10.447,10.23c19.396,5.359,85.874,28.438,94.636,55.182c5.25,16.019,5.405,21.206,5.405,21.206
			c0,11.541,3.951,21.844-8.58,21.844H12.57c-12.529,0-11.024-14.427-10.556-20.929c0.376-5.224,1.779-12.299,4.837-21.366
			C13.369,236.191,70.371,214.826,101.794,203.092z"/>
		<path fill="#51A4B3" d="M146.873,211.911l-0.097-1.515l35.604-20.096c2.049,4.93,6.906,7.867,12.037,9.287
			c19.396,5.359,90.435,30.649,98.721,53.318c5.786,15.83,5.136,23.691,5.136,23.691c0,11.541-0.843,21.222-13.375,21.222H146.873
			V211.911z"/>
		<polygon fill="#CDDEE0" points="146.776,207.545 101.35,216.258 128.836,297.68 166.692,297.68 191.064,225.594 185.879,205.891 
					"/>
		<linearGradient id="SVGID_1_" gradientUnits="userSpaceOnUse" x1="147.3506" y1="215.3574" x2="195.3174" y2="215.3574">
			<stop  offset="0" style="stop-color:#E6E6E5"/>
			<stop  offset="1" style="stop-color:#DCDBDB"/>
		</linearGradient>
		<polygon fill="url(#SVGID_1_)" points="183.203,188.855 147.351,207.438 170.583,241.859 195.317,199.963 		"/>
		<polygon fill="#FFFFFF" points="146.776,207.545 123.876,242.633 98.513,204.35 112.178,189.479 		"/>
		<path opacity="0.4" fill="#7B7B7B" d="M179.385,172.953c0,0-14.141,10.857-31.188,10.857c-9.743,0-21.429-4.869-21.429-4.869
			l25.351,25.957l29.691-15.42C181.81,189.479,178.617,177.141,179.385,172.953z"/>
		<path fill="#5DBACA" d="M191.24,196.125L160.279,297.81h23.331c0,0,19.006-32.998,24.834-50.222s2.117-43.354,2.117-43.354
			L191.24,196.125z"/>
		<path fill="#51A4B3" d="M103.219,198.82l31.458,98.989H107.52c0,0-23.334-35.785-25.835-50.557s4.149-38.681,4.149-38.681
			L103.219,198.82z"/>
	</g>
	<path fill="#F4783F" d="M119.535,48.13c0,0,27.949,29.733,100.607,44.718c3.349-9.764,9.33-85.759-67.819-89.346
		c-37.314-0.72-42.698,11.48-42.698,11.48s-46.689,6.719-31.217,78.942C83.083,85.356,104.908,80.564,119.535,48.13z"/>
</g>
</svg>
