<?xml version="1.0" encoding="utf-8"?>
<!-- Generator: Adobe Illustrator 16.0.0, SVG Export Plug-In . SVG Version: 6.00 Build 0)  -->
<!DOCTYPE svg PUBLIC "-//W3C//DTD SVG 1.1//EN" "http://www.w3.org/Graphics/SVG/1.1/DTD/svg11.dtd">
<svg version="1.1" id="Layer_1" xmlns="http://www.w3.org/2000/svg" xmlns:xlink="http://www.w3.org/1999/xlink" x="0px" y="0px"
	 width="300px" height="300px" viewBox="0 0 300 300" enable-background="new 0 0 300 300" xml:space="preserve">
<g>
	<path fill="#CDDEE0" d="M10.531,258.259c6.375-23.041,59.175-40.675,90.598-52.409c10.004-3.74,13.124-20.88,13.221-33.503
		c-4.51-3.221-8.537-7.885-12.525-13.934c-5.749-8.676-11.39-15.462-15.903-26.725c-2.876-0.375-6.121-2.599-7.864-5.547
		c-6.87-11.607-10.42-29.886-8.19-35.699c1.224-3.214,4.694-3.976,7.58-4.03C75.772,44.781,96.068,19.91,121.771,10.52
		c5.752-2.338,5.009-2.604,18.498-6.048c7.427-1.897,17.761-2.067,21.384-1.46c3.288,0.604,15.551,7.29,13.591,11.466
		c-0.086-0.013,16.257-4.478,19.841,8.52c0.67,0.616,1.272,0.079,0.401,0.948c10.453,7.844,24.08,31.639,22.854,62.443
		c3.012-0.085,7.06,0.507,8.396,4.018c2.247,5.819-1.311,24.061-8.176,35.668c-1.876,3.178-5.504,5.438-8.528,5.517
		c-4.399,11.251-9.891,17.909-15.62,26.567c-4.414,6.666-8.864,11.373-13.976,14.635c0.326,11.439,3.111,24.43,13.523,27.312
		c19.396,5.359,84.21,28.021,92.972,54.765c5.252,16.019,5.821,22.037,5.821,22.037c0,11.541-4.743,21.43-17.275,21.43H20.339
		c-12.529,0-13.775-8.297-13.775-19.838C6.564,273.262,5.824,275.304,10.531,258.259z"/>
	<path fill="#5D8094" d="M101.794,203.61c4.329-1.619,7.239-5.328,9.163-10.043l36.203,14.712l36.352-18.403
		c2.046,4.932,5.316,8.811,10.447,10.23c19.396,5.359,85.874,28.438,94.636,55.182c5.25,16.019,5.405,21.206,5.405,21.206
		c0,11.541,3.951,21.844-8.58,21.844H12.57c-12.529,0-11.024-14.427-10.556-20.929c0.375-5.224,1.779-12.299,4.837-21.366
		C13.37,236.71,70.371,215.345,101.794,203.61z"/>
	<path fill="#3C566D" d="M146.873,212.43l-0.097-1.515l35.604-20.096c2.049,4.93,6.906,7.867,12.037,9.287
		c19.396,5.359,90.435,30.649,98.721,53.318c5.786,15.83,5.136,23.691,5.136,23.691c0,11.541-0.843,21.222-13.375,21.222H146.873
		V212.43z"/>
	<linearGradient id="SVGID_1_" gradientUnits="userSpaceOnUse" x1="117.6226" y1="248.1338" x2="172.3328" y2="253.8757">
		<stop  offset="0" style="stop-color:#E6E6E5"/>
		<stop  offset="1" style="stop-color:#C9C9C9"/>
	</linearGradient>
	<polygon fill="url(#SVGID_1_)" points="146.776,208.063 101.35,216.776 128.835,298.198 166.692,298.198 191.064,226.112 
		185.879,206.409 	"/>
	<polygon fill="#5DBACA" points="137.592,245.744 125.217,298.338 171.624,298.338 156.155,245.744 	"/>
	<polygon fill="#51A4B3" points="147.16,298.338 171.624,298.338 156.155,245.744 147.16,245.744 	"/>
	<path fill="#5DBACA" d="M163.131,242.317c-1.002,5.004-5.999,9.101-11.103,9.101h-10.311c-5.104,0-10.1-4.097-11.101-9.101
		l-3.579-17.896c-1.001-5.004,2.356-9.1,7.46-9.1h24.751c5.104,0,8.46,4.096,7.46,9.1L163.131,242.317z"/>
	<linearGradient id="SVGID_2_" gradientUnits="userSpaceOnUse" x1="147.3506" y1="215.876" x2="195.3174" y2="215.876">
		<stop  offset="0" style="stop-color:#E6E6E5"/>
		<stop  offset="1" style="stop-color:#DCDBDB"/>
	</linearGradient>
	<polygon fill="url(#SVGID_2_)" points="183.203,189.374 147.351,207.956 170.583,242.378 195.317,200.481 	"/>
	<polygon fill="#FFFFFF" points="146.776,208.063 123.876,243.151 98.513,204.868 112.178,189.997 	"/>
	<path opacity="0.4" fill="#7B7B7B" d="M179.385,173.472c0,0-14.141,10.857-31.188,10.857c-9.743,0-21.429-4.869-21.429-4.869
		l25.351,25.957l29.691-15.42C181.81,189.997,178.617,177.659,179.385,173.472z"/>
	<polygon fill="#5D8094" points="191.24,196.644 160.279,298.328 183.61,298.328 203.197,259.618 188.749,247.696 208.444,248.106 
		210.562,204.753 	"/>
	<polygon fill="#3F5B73" points="103.218,199.339 134.677,298.328 107.52,298.328 86.933,259.279 104.787,245.526 81.685,247.771 
		85.834,209.091 	"/>
	<path fill="#3C566D" d="M116.482,41.608c0,0,21.329,12.937,65.737,1.049c7.693,0.697,24.83,8.045,20.981,23.78
		c-1.749,6.991,5.593,26.574,5.593,26.574s6.854-6.598,9.547-6.622c0.245-5.967,1.979-37.82-21.442-62.629
		c0.707-0.683-5.424-12.877-18.626-11.717c-2.45-3.147-5.842-9.251-19.48-10.296c-13.637-1.052-41.26,8.042-48.254,13.638
		c-4.896,1.396-36.46,20.375-33.091,71.028c0.222-0.048,8.613,5.197,8.613,5.197s8.044-14.333,9.092-22.726
		C92.354,59.092,98.998,38.811,116.482,41.608z"/>
</g>
</svg>
