<?xml version="1.0" encoding="utf-8"?>
<!-- Generator: Adobe Illustrator 16.0.0, SVG Export Plug-In . SVG Version: 6.00 Build 0)  -->
<!DOCTYPE svg PUBLIC "-//W3C//DTD SVG 1.1//EN" "http://www.w3.org/Graphics/SVG/1.1/DTD/svg11.dtd">
<svg version="1.1" id="Layer_1" xmlns="http://www.w3.org/2000/svg" xmlns:xlink="http://www.w3.org/1999/xlink" x="0px" y="0px"
	 width="86.461px" height="99.196px" viewBox="0 0 86.461 99.196" enable-background="new 0 0 86.461 99.196" xml:space="preserve">
<path fill="#FFFFFF" d="M85.515,24.435c-0.093-0.06-9.321-6.099-18.946-12.062C46.645,0.026,44.474,0.009,43.43,0
	c-1.043-0.008-3.213-0.026-23.334,11.997c-9.719,5.808-19.046,11.696-19.14,11.755L0,24.355v49.803l0.543,0.604
	c0.093,0.058,9.322,6.1,18.947,12.062c19.925,12.348,22.094,12.364,23.138,12.372c1.043,0.01,3.214,0.027,23.335-11.995
	c9.72-5.807,19.046-11.698,19.138-11.756l1.359-0.88V25.054L85.515,24.435z M84.188,49.932l-0.191,23.762
	c0,0-37.139,23.466-41.351,23.433C38.431,97.091,1.678,73.028,1.678,73.028L1.87,49.267l0.192-23.764
	c0,0,37.138-23.465,41.352-23.431C47.625,2.106,84.38,26.168,84.38,26.168L84.188,49.932z"/>
<g>
	<polygon fill="#FFFFFF" points="5.35,27.437 43.343,10.72 43.394,4.618 	"/>
	<polygon fill="#FFFFFF" points="43.394,4.618 43.343,10.72 81.062,28.049 	"/>
</g>
<g>
	<polygon fill="#FFFFFF" points="80.709,71.886 42.715,88.604 42.665,94.705 	"/>
	<polygon fill="#FFFFFF" points="42.665,94.705 42.715,88.604 4.996,71.272 	"/>
</g>
<polygon fill="#FFFFFF" points="25.945,75.18 25.943,75.18 25.945,75.181 "/>
<polygon fill="#FFFFFF" points="26.017,66.248 26.017,66.246 26.015,66.248 "/>
<g>
	<g>
		<g>
			<path fill="#FFFFFF" d="M61.293,25.021l0.859-3.987l-45.919,7.512c-0.526,0.085-0.601,0.409-0.166,0.715l6.8,4.797
				c0.437,0.31,1.226,0.495,1.752,0.413l35.812-5.463l0.205-0.948l0,0L61.293,25.021z"/>
		</g>
		<path fill="#FFFFFF" d="M24.143,35.853l0.012,5.982c0,0.533,0.308,0.659,0.679,0.276l5.818-5.95
			c0.375-0.381,0.684-1.131,0.687-1.665L24.143,35.853z"/>
	</g>
	<g>
		<g>
			<path fill="#FFFFFF" d="M61.293,45.879l0.859-3.987l-45.919,7.512c-0.526,0.085-0.601,0.409-0.166,0.715l6.8,4.796
				c0.437,0.31,1.226,0.494,1.752,0.414l35.812-5.464l0.205-0.949l0,0L61.293,45.879z"/>
		</g>
		<path fill="#FFFFFF" d="M24.143,56.712l0.012,5.98c0,0.533,0.308,0.66,0.679,0.276l5.818-5.95
			c0.375-0.381,0.684-1.129,0.687-1.663L24.143,56.712z"/>
	</g>
	<g>
		<g>
			<path fill="#FFFFFF" d="M61.343,66.53l0.86-3.986l-45.919,7.512c-0.526,0.085-0.602,0.409-0.166,0.715l6.801,4.797
				c0.437,0.309,1.226,0.496,1.752,0.412l35.812-5.463l0.205-0.948l0,0L61.343,66.53z"/>
		</g>
	</g>
</g>
</svg>
