<?xml version="1.0" encoding="utf-8"?>
<!-- Generator: Adobe Illustrator 16.0.0, SVG Export Plug-In . SVG Version: 6.00 Build 0)  -->
<!DOCTYPE svg PUBLIC "-//W3C//DTD SVG 1.1//EN" "http://www.w3.org/Graphics/SVG/1.1/DTD/svg11.dtd">
<svg version="1.1" id="Layer_1" xmlns="http://www.w3.org/2000/svg" xmlns:xlink="http://www.w3.org/1999/xlink" x="0px" y="0px"
	 width="297.129px" height="99.196px" viewBox="0 0 297.129 99.196" enable-background="new 0 0 297.129 99.196"
	 xml:space="preserve">
<path fill="#FFFFFF" d="M85.515,24.435c-0.092-0.06-9.322-6.099-18.946-12.062C46.644,0.026,44.474,0.009,43.43,0
	c-1.043-0.008-3.213-0.026-23.334,11.997c-9.719,5.808-19.046,11.696-19.14,11.755L0,24.355v49.803l0.543,0.604
	c0.093,0.058,9.322,6.1,18.947,12.062c19.925,12.348,22.094,12.364,23.138,12.372c1.043,0.01,3.214,0.027,23.335-11.995
	c9.719-5.807,19.046-11.698,19.138-11.756l1.358-0.88V25.054L85.515,24.435z M84.188,49.932l-0.191,23.762
	c0,0-37.139,23.466-41.352,23.433C38.431,97.091,1.678,73.028,1.678,73.028L1.87,49.267l0.192-23.764
	c0,0,37.138-23.465,41.352-23.431C47.625,2.106,84.38,26.168,84.38,26.168L84.188,49.932z"/>
<g>
	<polygon fill="#FFFFFF" points="5.35,27.437 43.343,10.72 43.394,4.618 	"/>
	<polygon fill="#FFFFFF" points="43.394,4.618 43.343,10.72 81.062,28.049 	"/>
</g>
<g>
	<polygon fill="#FFFFFF" points="80.708,71.886 42.715,88.604 42.665,94.705 	"/>
	<polygon fill="#FFFFFF" points="42.665,94.705 42.715,88.604 4.996,71.272 	"/>
</g>
<polygon fill="#FFFFFF" points="25.945,75.18 25.943,75.18 25.945,75.181 "/>
<polygon fill="#FFFFFF" points="26.017,66.248 26.017,66.246 26.015,66.248 "/>
<g>
	<g>
		<g>
			<path fill="#FFFFFF" d="M61.292,25.021l0.86-3.987l-45.919,7.512c-0.526,0.085-0.601,0.409-0.166,0.715l6.8,4.797
				c0.437,0.31,1.226,0.495,1.752,0.413l35.812-5.463l0.205-0.948l0,0L61.292,25.021z"/>
		</g>
		<path fill="#FFFFFF" d="M24.143,35.853l0.012,5.982c0,0.533,0.308,0.659,0.679,0.276l5.818-5.95
			c0.375-0.381,0.684-1.131,0.687-1.665L24.143,35.853z"/>
	</g>
	<g>
		<g>
			<path fill="#FFFFFF" d="M61.292,45.879l0.86-3.987l-45.919,7.512c-0.526,0.085-0.601,0.409-0.166,0.714l6.8,4.796
				c0.437,0.31,1.226,0.494,1.752,0.414l35.812-5.464l0.205-0.949l0,0L61.292,45.879z"/>
		</g>
		<path fill="#FFFFFF" d="M24.143,56.712l0.012,5.98c0,0.533,0.308,0.66,0.679,0.276l5.818-5.95
			c0.375-0.381,0.684-1.129,0.687-1.663L24.143,56.712z"/>
	</g>
	<g>
		<g>
			<path fill="#FFFFFF" d="M61.343,66.53l0.86-3.986l-45.919,7.512c-0.526,0.085-0.602,0.409-0.166,0.715l6.801,4.797
				c0.437,0.309,1.226,0.496,1.752,0.412l35.811-5.463l0.206-0.948l0,0L61.343,66.53z"/>
		</g>
	</g>
</g>
<g>
	<g>
		<g>
			<path fill="#FFFFFF" d="M101.801,64.231c0,2.582,1.149,4.88,5.667,4.88h18.229v5.456H106.39
				c-7.319-0.215-10.618-2.371-10.764-9.405V25.121h30.072v5.455h-23.896v15.716h22.246v5.454h-22.246V64.231z"/>
		</g>
	</g>
	<g>
		<path fill="#FFFFFF" d="M143.24,69.12v-44h-5.868v40.042c0.144,7.034,3.446,9.19,10.765,9.405h17.725V69.12H143.24z"/>
	</g>
	<g>
		<path fill="#FFFFFF" d="M177.599,25.121v40.042c0.104,5.209,1.95,7.734,5.864,8.788v-48.83H177.599z"/>
	</g>
	<path fill="#FFFFFF" d="M195.195,49.841c0-14.945,10.827-25.978,25.846-25.978c15.013,0,25.838,11.033,25.838,25.978
		c0,14.948-10.825,25.982-25.838,25.982C206.022,75.823,195.195,64.789,195.195,49.841z M240.591,49.841
		c0-11.381-7.96-20.53-19.551-20.53c-11.595,0-19.555,9.149-19.555,20.53c0,11.386,7.96,20.532,19.555,20.532
		C232.631,70.373,240.591,61.228,240.591,49.841z"/>
	<g>
		<path fill="#FFFFFF" d="M274.829,30.568v34.594c0.014,0.522,0.05,1.009,0.091,1.478V30.568H274.829z"/>
		<path fill="#FFFFFF" d="M274.829,25.121h-16.246v5.448h16.246h0.091V66.64c0.42,4.252,2.282,6.406,5.867,7.34V30.568h16.343
			v-5.448H274.829z"/>
	</g>
</g>
<g>
	<path fill="#FFFFFF" d="M98.173,81.066l2.09,4.981h0.019l2.1-4.981h1.412v6.592h-1.026v-5.02h-0.028l-2.005,4.634h-0.914
		l-2.006-4.643h-0.019v5.028h-1.036v-6.592H98.173z"/>
	<path fill="#FFFFFF" d="M114.497,80.981l2.496,6.677h-1.102l-0.593-1.733h-2.665l-0.603,1.733h-1.102l2.496-6.677H114.497z
		 M112.887,85.088h2.157l-1.092-3.089L112.887,85.088z"/>
	<path fill="#FFFFFF" d="M125.2,81.066l2.006,3.069l1.158,1.894h0.019l-0.047-2.251v-2.712h1.036v6.592h-1.064l-2.015-3.202
		l-1.158-1.817h-0.019l0.047,1.864v3.155h-1.036v-6.592H125.2z"/>
	<path fill="#FFFFFF" d="M140.084,80.981l2.495,6.677h-1.102l-0.593-1.733h-2.665l-0.603,1.733h-1.102l2.496-6.677H140.084z
		 M138.474,85.088h2.156l-1.092-3.089L138.474,85.088z"/>
	<path fill="#FFFFFF" d="M154.874,81.527l-0.404,0.772c-0.113-0.047-0.819-0.386-1.705-0.386c-1.431,0-2.438,1.045-2.438,2.438
		c0,1.413,1.026,2.458,2.392,2.458c0.519,0,1.093-0.15,1.525-0.518v-1.271h-1.732v-0.856h2.693v2.523
		c-0.838,0.781-1.582,1.055-2.439,1.055c-2.034,0-3.541-1.525-3.541-3.372c0-1.863,1.536-3.39,3.457-3.39
		C153.5,80.981,154.309,81.198,154.874,81.527z"/>
	<path fill="#FFFFFF" d="M167.395,81.066v0.97h-3.56v1.94h3.041v0.932h-3.041v1.789h3.653v0.961h-4.689v-6.592H167.395z"/>
	<path fill="#FFFFFF" d="M176.421,81.066l2.091,4.981h0.019l2.101-4.981h1.412v6.592h-1.026v-5.02h-0.028l-2.006,4.634h-0.913
		l-2.006-4.643h-0.019v5.028h-1.036v-6.592H176.421z"/>
	<path fill="#FFFFFF" d="M194.544,81.066v0.97h-3.56v1.94h3.042v0.932h-3.042v1.789h3.653v0.961h-4.689v-6.592H194.544z"/>
	<path fill="#FFFFFF" d="M203.232,81.066l2.006,3.069l1.158,1.894h0.02l-0.048-2.251v-2.712h1.036v6.592h-1.063l-2.016-3.202
		l-1.158-1.817h-0.02l0.048,1.864v3.155h-1.036v-6.592H203.232z"/>
	<path fill="#FFFFFF" d="M220,81.066v0.97h-2.146v5.622h-1.027v-5.622h-2.156v-0.97H220z"/>
	<path fill="#FFFFFF" d="M241.106,81.527l-0.405,0.772c-0.113-0.047-0.819-0.386-1.704-0.386c-1.432,0-2.439,1.045-2.439,2.438
		c0,1.413,1.026,2.458,2.392,2.458c0.519,0,1.093-0.15,1.526-0.518v-1.271h-1.733v-0.856h2.693v2.523
		c-0.838,0.781-1.582,1.055-2.438,1.055c-2.035,0-3.541-1.525-3.541-3.372c0-1.863,1.535-3.39,3.456-3.39
		C239.731,80.981,240.541,81.198,241.106,81.527z"/>
	<path fill="#FFFFFF" d="M251.958,81.066c1.074,0,1.959,0.886,1.959,1.959c0,0.828-0.518,1.582-1.309,1.846l1.562,2.787h-1.195
		l-1.432-2.665h-1.479v2.665h-1.036v-6.592H251.958z M250.066,84.052h1.893c0.509,0,0.942-0.509,0.942-1.026
		c0-0.734-0.641-0.989-1.253-0.989h-1.582V84.052z"/>
	<path fill="#FFFFFF" d="M264.537,80.981c1.826,0,3.39,1.412,3.39,3.371c0,1.912-1.563,3.391-3.39,3.391
		c-1.809,0-3.391-1.479-3.391-3.391C261.146,82.394,262.728,80.981,264.537,80.981z M264.537,86.811
		c1.337,0,2.288-1.026,2.288-2.458c0-1.403-0.951-2.438-2.288-2.438c-1.318,0-2.289,1.035-2.289,2.438
		C262.248,85.784,263.19,86.811,264.537,86.811z"/>
	<path fill="#FFFFFF" d="M276.425,81.066v4.144c0,0.876,0.697,1.469,1.582,1.469s1.592-0.593,1.592-1.469v-4.144h1.017v4.115
		c0,1.497-0.933,2.477-2.6,2.477c-1.562,0-2.599-0.876-2.599-2.477v-4.115H276.425z"/>
	<path fill="#FFFFFF" d="M291.328,81.066c1.084,0,1.969,0.979,1.969,2.044c0,1.063-0.876,2.062-1.939,2.062h-1.837v2.485h-1.036
		v-6.592H291.328z M289.52,84.192h1.808c0.509,0,0.933-0.556,0.933-1.082c0-0.734-0.593-1.064-1.233-1.064h-1.507V84.192z"/>
</g>
</svg>
